<?xml version="1.0" encoding="UTF-8" standalone="no"?>
<!DOCTYPE svg PUBLIC "-//W3C//DTD SVG 1.1//EN"
 "http://www.w3.org/Graphics/SVG/1.1/DTD/svg11.dtd">
<!-- Generated by graphviz version 2.36.0 (20140111.2315)
 -->
<!-- Title: models_diagram Pages: 1 -->
<svg width="341pt" height="396pt"
 viewBox="0.00 0.00 341.00 396.00" xmlns="http://www.w3.org/2000/svg" xmlns:xlink="http://www.w3.org/1999/xlink">
<g id="graph0" class="graph" transform="scale(1 1) rotate(0) translate(4 392)">
<title>models_diagram</title>
<polygon fill="white" stroke="none" points="-4,4 -4,-392 337,-392 337,4 -4,4"/>
<!-- _diagram_info -->
<g id="node1" class="node"><title>_diagram_info</title>
<text text-anchor="start" x="7.5" y="-373.6" font-family="Times,serif" font-size="13.00">Models diagram</text>
<text text-anchor="start" x="7.5" y="-359.6" font-family="Times,serif" font-size="13.00">Date: Jan 23 2015 &#45; 16:28</text>
<text text-anchor="start" x="7.5" y="-345.6" font-family="Times,serif" font-size="13.00">Migration version: 20150110000557</text>
<text text-anchor="start" x="7.5" y="-331.6" font-family="Times,serif" font-size="13.00">Generated by RailRoady 1.3.0</text>
<text text-anchor="start" x="7.5" y="-317.6" font-family="Times,serif" font-size="13.00">http://railroady.prestonlee.com</text>
</g>
<!-- AccessLevel -->
<g id="node2" class="node"><title>AccessLevel</title>
<ellipse fill="none" stroke="black" cx="188" cy="-254" rx="56.3173" ry="18"/>
<text text-anchor="middle" x="188" y="-250.3" font-family="Times,serif" font-size="14.00">AccessLevel</text>
</g>
<!-- User -->
<g id="node6" class="node"><title>User</title>
<ellipse fill="none" stroke="black" cx="188" cy="-180" rx="28.3955" ry="18"/>
<text text-anchor="middle" x="188" y="-176.3" font-family="Times,serif" font-size="14.00">User</text>
</g>
<!-- AccessLevel&#45;&gt;User -->
<g id="edge1" class="edge"><title>AccessLevel&#45;&gt;User</title>
<path fill="none" stroke="#58f09f" d="M188,-227.792C188,-221.58 188,-214.896 188,-208.579"/>
<ellipse fill="none" stroke="#58f09f" cx="188" cy="-231.937" rx="4" ry="4"/>
<polygon fill="#58f09f" stroke="#58f09f" points="188,-208.441 192.5,-198.441 188,-203.441 188,-198.441 188,-198.441 188,-198.441 188,-203.441 183.5,-198.441 188,-208.441 188,-208.441"/>
</g>
<!-- DataFile -->
<g id="node3" class="node"><title>DataFile</title>
<ellipse fill="none" stroke="black" cx="290" cy="-18" rx="42.3701" ry="18"/>
<text text-anchor="middle" x="290" y="-14.3" font-family="Times,serif" font-size="14.00">DataFile</text>
</g>
<!-- Diagram -->
<g id="node4" class="node"><title>Diagram</title>
<ellipse fill="none" stroke="black" cx="290" cy="-92" rx="43.319" ry="18"/>
<text text-anchor="middle" x="290" y="-88.3" font-family="Times,serif" font-size="14.00">Diagram</text>
</g>
<!-- Diagram&#45;&gt;DataFile -->
<g id="edge4" class="edge"><title>Diagram&#45;&gt;DataFile</title>
<path fill="none" stroke="#d44115" d="M290,-65.7923C290,-59.5805 290,-52.8963 290,-46.5786"/>
<ellipse fill="none" stroke="#d44115" cx="290" cy="-69.937" rx="4" ry="4"/>
<polygon fill="#d44115" stroke="#d44115" points="290,-46.4407 294.5,-36.4406 290,-41.4407 290,-36.4407 290,-36.4407 290,-36.4407 290,-41.4407 285.5,-36.4407 290,-46.4407 290,-46.4407"/>
</g>
<!-- Diagram&#45;&gt;User -->
<g id="edge3" class="edge"><title>Diagram&#45;&gt;User</title>
<path fill="none" stroke="#4b3ee1" d="M293.318,-120.397C292.968,-128.692 291.084,-137.354 286,-144 271.85,-162.497 247.102,-171.24 226.017,-175.363"/>
<polygon fill="#4b3ee1" stroke="#4b3ee1" points="293.315,-120.265 297.566,-110.157 293.191,-115.267 293.067,-110.268 293.067,-110.268 293.067,-110.268 293.191,-115.267 288.569,-110.38 293.315,-120.265 293.315,-120.265"/>
<polygon fill="#4b3ee1" stroke="#4b3ee1" points="225.885,-175.385 215.279,-172.6 220.954,-176.211 216.023,-177.038 216.023,-177.038 216.023,-177.038 220.954,-176.211 216.767,-181.476 225.885,-175.385 225.885,-175.385"/>
</g>
<!-- UserDiagram -->
<g id="node7" class="node"><title>UserDiagram</title>
<ellipse fill="none" stroke="black" cx="159" cy="-18" rx="61.1419" ry="18"/>
<text text-anchor="middle" x="159" y="-14.3" font-family="Times,serif" font-size="14.00">UserDiagram</text>
</g>
<!-- Diagram&#45;&gt;UserDiagram -->
<g id="edge2" class="edge"><title>Diagram&#45;&gt;UserDiagram</title>
<path fill="none" stroke="#6ebcc6" d="M257.918,-73.3674C239.045,-62.9942 215.115,-49.8418 195.52,-39.0718"/>
<ellipse fill="none" stroke="#6ebcc6" cx="261.546" cy="-75.3612" rx="4.00002" ry="4.00002"/>
<polygon fill="#6ebcc6" stroke="#6ebcc6" points="195.337,-38.9713 188.74,-30.211 190.955,-36.5629 186.573,-34.1546 186.573,-34.1546 186.573,-34.1546 190.955,-36.5629 184.405,-38.0982 195.337,-38.9713 195.337,-38.9713"/>
</g>
<!-- Institution -->
<g id="node5" class="node"><title>Institution</title>
<ellipse fill="none" stroke="black" cx="273" cy="-349" rx="48.6179" ry="18"/>
<text text-anchor="middle" x="273" y="-345.3" font-family="Times,serif" font-size="14.00">Institution</text>
</g>
<!-- Institution&#45;&gt;AccessLevel -->
<g id="edge7" class="edge"><title>Institution&#45;&gt;AccessLevel</title>
<path fill="none" stroke="#60697e" d="M252.449,-325.515C239.642,-311.503 223.17,-293.481 210.085,-279.164"/>
<ellipse fill="none" stroke="#60697e" cx="255.496" cy="-328.848" rx="4.00002" ry="4.00002"/>
<polygon fill="#60697e" stroke="#60697e" points="209.955,-279.021 206.53,-268.604 206.582,-275.331 203.209,-271.64 203.209,-271.64 203.209,-271.64 206.582,-275.331 199.887,-274.676 209.955,-279.021 209.955,-279.021"/>
</g>
<!-- Institution&#45;&gt;Diagram -->
<g id="edge6" class="edge"><title>Institution&#45;&gt;Diagram</title>
<path fill="none" stroke="#8f2d02" d="M278.304,-322.875C280.24,-313.244 282.356,-302.136 284,-292 294.619,-226.538 298.769,-210.183 303,-144 303.454,-136.903 304.258,-134.999 303,-128 302.484,-125.129 301.748,-122.186 300.885,-119.285"/>
<ellipse fill="none" stroke="#8f2d02" cx="277.466" cy="-326.977" rx="4.00001" ry="4.00001"/>
<polygon fill="#8f2d02" stroke="#8f2d02" points="300.856,-119.202 301.851,-108.282 299.227,-114.475 297.597,-109.749 297.597,-109.749 297.597,-109.749 299.227,-114.475 293.343,-111.215 300.856,-119.202 300.856,-119.202"/>
</g>
<!-- Institution&#45;&gt;User -->
<g id="edge5" class="edge"><title>Institution&#45;&gt;User</title>
<path fill="none" stroke="#5385f1" d="M273.281,-322.647C272.482,-298.793 268.455,-262.828 253,-236 244.284,-220.869 229.772,-207.992 216.669,-198.509"/>
<ellipse fill="none" stroke="#5385f1" cx="273.365" cy="-326.849" rx="4" ry="4"/>
<polygon fill="#5385f1" stroke="#5385f1" points="216.576,-198.446 210.887,-189.071 212.456,-195.612 208.337,-192.779 208.337,-192.779 208.337,-192.779 212.456,-195.612 205.787,-196.487 216.576,-198.446 216.576,-198.446"/>
</g>
<!-- User&#45;&gt;Diagram -->
<g id="edge9" class="edge"><title>User&#45;&gt;Diagram</title>
<path fill="none" stroke="#d2e11f" d="M171.274,-156.618C166.326,-147.142 163.715,-136.38 170,-128 185.381,-107.492 212.117,-98.4581 236.455,-94.6755"/>
<ellipse fill="none" stroke="#d2e11f" cx="173.357" cy="-160.116" rx="4.00002" ry="4.00002"/>
<polygon fill="#d2e11f" stroke="#d2e11f" points="236.78,-94.6338 247.272,-97.821 241.739,-93.9958 246.698,-93.3578 246.698,-93.3578 246.698,-93.3578 241.739,-93.9958 246.124,-88.8946 236.78,-94.6338 236.78,-94.6338"/>
<text text-anchor="middle" x="226" y="-132.3" font-family="Times,serif" font-size="14.00">authored_diagrams</text>
</g>
<!-- User&#45;&gt;UserDiagram -->
<g id="edge8" class="edge"><title>User&#45;&gt;UserDiagram</title>
<path fill="none" stroke="#63525f" d="M168.895,-157.459C166.091,-153.247 163.61,-148.677 162,-144 150.936,-111.851 152.287,-72.2507 155.004,-46.3507"/>
<ellipse fill="none" stroke="#63525f" cx="171.454" cy="-160.943" rx="4.00002" ry="4.00002"/>
<polygon fill="#63525f" stroke="#63525f" points="155.036,-46.0809 160.687,-36.6837 155.627,-41.116 156.219,-36.1511 156.219,-36.1511 156.219,-36.1511 155.627,-41.116 151.751,-35.6186 155.036,-46.0809 155.036,-46.0809"/>
</g>
</g>
</svg>
